PathFileType	4	(X/Y/Z)	temp_trc_file_rotated.trc
DataRate	CameraRate	NumFrames	NumMarkers	Units	OrigDataRate	OrigDataStartFrame	OrigNumFrames
250.000000	250.000000	5	40	mm	250.000000	705	806
Frame#	Time	C7			T10			LTH3			RPSI			RTH3			LTB2			LCAL			RMT2			RTB2			RCAL			RMT1			LMT2			LTH2			RTH1			LMT1			LTB1			RTH2			LTB3			LTH1			RTB1			RTB3			CLAV			LASI			STRN			RASI			LPSI			RLFC			RMFC			LLFC			LMFC			RMMAL			RLMAL			LMMAL			LLMAL			LAJC			LHJC			LKJC			RAJC			RHJC			RKJC			
		X1	Y1	Z1	X2	Y2	Z2	X3	Y3	Z3	X4	Y4	Z4	X5	Y5	Z5	X6	Y6	Z6	X7	Y7	Z7	X8	Y8	Z8	X9	Y9	Z9	X10	Y10	Z10	X11	Y11	Z11	X12	Y12	Z12	X13	Y13	Z13	X14	Y14	Z14	X15	Y15	Z15	X16	Y16	Z16	X17	Y17	Z17	X18	Y18	Z18	X19	Y19	Z19	X20	Y20	Z20	X21	Y21	Z21	X22	Y22	Z22	X23	Y23	Z23	X24	Y24	Z24	X25	Y25	Z25	X26	Y26	Z26	X27	Y27	Z27	X28	Y28	Z28	X29	Y29	Z29	X30	Y30	Z30	X31	Y31	Z31	X32	Y32	Z32	X33	Y33	Z33	X34	Y34	Z34	X35	Y35	Z35	X36	Y36	Z36	X37	Y37	Z37	X38	Y38	Z38	X39	Y39	Z39	X40	Y40	Z40	

706	2.82	3538.87939453125	-665.2630615233459	-1547.538452148438	-999.4685668945312	664.7535400390625	1268.863403320312	-1134.379516601562	511.2460021972656	603.3723754882812	-1021.213073730469	718.7849731445312	1067.18994140625	-1221.297729492188	803.0673828125	679.0507202148438	-1003.020446777344	507.0702209472656	400.7777709960938	-752.9472045898438	600.7879028320312	343.2374267578125	-1305.950561523438	744.933837890625	48.07593536376953	-1206.765014648438	769.0111694335938	313.4525451660156	-1079.395385742188	691.0814208984375	53.24030303955078	-1322.70849609375	663.799560546875	52.01560592651367	-798.333251953125	532.4695434570312	129.3271484375	-1233.686401367188	519.0575561523438	714.4496459960938	-1164.109375	829.3754272460938	872.8834838867188	-821.0684814453125	625.5861206054688	110.485595703125	-1122.326538085938	587.8435668945312	391.6941833496094	-1273.057006835938	739.6904296875	804.1651611328125	-938.498291015625	602.5499877929688	313.0568237304688	-1103.522583007812	498.687255859375	799.5771484375	-1251.004516601562	668.9262084960938	406.7944641113281	-1208.695068359375	669.709716796875	216.1086120605469	-1191.02880859375	665.93896484375	1434.624633789062	-1188.52978515625	553.3574829101562	1001.81591796875	-1230.563354492188	660.778076171875	1257.333984375	-1204.12353515625	750.4041748046875	1024.915649414062	-1010.905700683594	608.79052734375	1058.211181640625	-1260.468505859375	752.1244506835938	494.9241638183594	-1263.772338867188	647.9595336914062	496.7722473144531	-1186.372680664062	519.7390747070312	458.0260620117188	-1216.116821289062	618.0852661132812	463.2077941894531	-1179.320678710938	648.460693359375	104.9942245483398	-1172.518798828125	737.255859375	95.438232421875	-855.1726684570312	622.990966796875	255.6291198730469	-811.9561767578125	543.4154663085938	283.9078979492188	-833.5643920898438	583.2032470703125	269.7685241699219	-1115.795776367188	571.1956787109375	907.8837280273438	-1201.244750976562	568.9121704101562	460.6169128417969	-1175.919799804688	692.8582763671875	100.2162322998047	-1137.527221679688	757.24853515625	926.0054931640625	-1262.120483398438	700.0419921875	495.8482055664062	
707	2.824	3538.87939453125	-665.2630615233459	-1547.538452148438	-1005.209716796875	664.9332275390625	1270.415771484375	-1144.754150390625	511.5497436523438	605.597412109375	-1025.651611328125	719.5146484375	1068.413452148438	-1225.033935546875	803.2496337890625	679.6080932617188	-1016.16259765625	507.1846923828125	402.2781066894531	-765.5740966796875	600.1782836914062	342.2933959960938	-1306.011596679688	744.9776611328125	48.09048080444336	-1207.672973632812	769.3054809570312	313.6635437011719	-1079.62744140625	691.0145263671875	53.4426155090332	-1322.857299804688	663.9144897460938	52.03647613525391	-814.8234252929688	532.2069091796875	129.0577239990234	-1242.598876953125	518.7330932617188	717.6761474609375	-1169.404296875	829.4345703125	873.8858642578125	-836.9114990234375	625.56494140625	110.4064254760742	-1135.64013671875	588.021484375	392.9383544921875	-1277.3408203125	739.4258422851562	804.4769287109375	-952.8843994140625	601.9794921875	314.2821960449219	-1111.116821289062	498.9195861816406	800.9024658203125	-1252.217651367188	669.1315307617188	406.9151916503906	-1209.101928710938	669.8154296875	216.2455291748047	-1196.757934570312	665.738525390625	1436.19140625	-1194.607055664062	553.8948974609375	1003.65283203125	-1236.528198242188	660.4821166992188	1258.995849609375	-1209.83154296875	750.8921508789062	1026.123291015625	-1017.084899902344	608.7240600585938	1059.678344726562	-1262.58642578125	752.5029907226562	495.1790466308594	-1265.421630859375	648.3204345703125	496.8000793457031	-1198.907836914062	519.9848022460938	460.7393493652344	-1229.0791015625	618.1697387695312	466.4800415039062	-1179.269775390625	648.550537109375	105.3665466308594	-1172.519897460938	737.3453979492188	95.77096557617188	-868.9423828125	622.0083618164062	256.2781372070312	-825.7408447265625	542.5863037109375	285.0075073242188	-847.3416137695312	582.2973022460938	270.642822265625	-1121.700927734375	571.2094116210938	909.6180419921875	-1213.993530273438	569.0772705078125	463.6096801757812	-1175.894897460938	692.9479370117188	100.5687561035156	-1143.304565429688	757.3369140625	927.1155395507812	-1264.004028320312	700.4116821289062	495.9895629882812	
708	2.828	3538.87939453125	-665.2630615233459	-1547.538452148438	-1011.618713378906	665.0328979492188	1271.01806640625	-1155.090209960938	511.7036743164062	607.7691650390625	-1032.348754882812	718.9027709960938	1070.003173828125	-1228.570190429688	803.3106079101562	680.1500854492188	-1028.795532226562	507.4287109375	403.588623046875	-778.206787109375	599.7412719726562	340.9070434570312	-1306.036376953125	744.9893798828125	48.04659652709961	-1208.4638671875	769.5230712890625	313.8816833496094	-1079.766479492188	691.1245727539062	53.4404411315918	-1322.965454101562	663.97705078125	52.06732177734375	-831.0300903320312	532.0333862304688	128.4566650390625	-1251.354736328125	518.5765991210938	721.0404663085938	-1174.541625976562	829.5081787109375	874.8362426757812	-853.0462036132812	625.3456420898438	110.2330856323242	-1146.579223632812	588.8406372070312	394.9844970703125	-1281.647094726562	739.2933959960938	804.66650390625	-966.6763305664062	601.9380493164062	315.0809326171875	-1118.851440429688	498.7870178222656	802.5576171875	-1253.247436523438	669.386474609375	406.9999389648438	-1209.482055664062	669.908447265625	216.4430999755859	-1202.452880859375	665.5574340820312	1437.962890625	-1200.651977539062	554.3327026367188	1005.696166992188	-1242.216552734375	660.2756958007812	1260.747192382812	-1215.680541992188	751.391845703125	1027.424926757812	-1023.226989746094	608.9163818359375	1061.4873046875	-1264.5361328125	752.5932006835938	495.4218444824219	-1267.112548828125	648.402587890625	496.9547729492188	-1211.145751953125	520.3167724609375	463.6111755371094	-1241.351928710938	618.4561767578125	469.9188537597656	-1179.272094726562	648.5613403320312	105.7359161376953	-1172.545654296875	737.3508911132812	96.07485961914062	-882.5122680664062	621.6983032226562	255.7346343994141	-839.2909545898438	542.10693359375	283.9611206054688	-860.901611328125	581.9026489257812	269.8478698730469	-1128.079711914062	571.0294189453125	911.5507202148438	-1226.248901367188	569.386474609375	466.7650146484375	-1175.908935546875	692.9561157226562	100.905387878418	-1148.837280273438	757.3018188476562	928.5223999023438	-1265.824340820312	700.4978637695312	496.1883239746094	
709	2.832	3538.87939453125	-665.2630615233459	-1547.538452148438	-1017.187133789062	664.9498901367188	1272.3994140625	-1165.233032226562	511.6350402832031	609.8697509765625	-1039.087280273438	718.9113159179688	1071.724853515625	-1231.985473632812	803.3031616210938	680.7649536132812	-1041.75634765625	507.4378051757812	404.6251220703125	-790.9841918945312	599.3010864257812	339.2574462890625	-1306.03466796875	744.9887084960938	48.04512786865234	-1209.190185546875	769.70458984375	314.0439453125	-1079.804443359375	691.126220703125	53.69378662109375	-1322.78662109375	663.9380493164062	51.91371536254883	-846.5484008789062	532.609375	127.4569778442383	-1260.130737304688	518.62060546875	724.552001953125	-1179.551513671875	829.4113159179688	875.923095703125	-869.3851318359375	625.2311401367188	109.8684158325195	-1159.436889648438	588.8694458007812	397.4164733886719	-1285.781127929688	739.0491333007812	804.7868041992188	-980.0424194335938	602.0985717773438	315.7703857421875	-1126.632202148438	498.7964782714844	804.6426391601562	-1254.1201171875	669.5811157226562	407.0035095214844	-1210.010986328125	669.9722290039062	216.6512145996094	-1208.325439453125	665.4735107421875	1439.572143554688	-1206.60888671875	554.8619384765625	1007.504211425781	-1248.206176757812	660.1622924804688	1262.36328125	-1221.486328125	751.8760375976562	1028.729125976562	-1029.281860351562	608.650634765625	1063.230102539062	-1266.333618164062	752.7403564453125	495.7070922851562	-1268.6279296875	648.5410766601562	497.0913696289062	-1222.9384765625	520.1724853515625	466.6107177734375	-1253.013549804688	618.3330078125	473.2088623046875	-1179.571411132812	648.56591796875	105.9866333007812	-1172.837768554688	737.3494262695312	96.27511596679688	-896.6131591796875	622.0079345703125	255.7672424316406	-853.1978149414062	542.2886352539062	283.3272094726562	-874.905517578125	582.1482543945312	269.5472412109375	-1134.262939453125	571.059814453125	913.3309936523438	-1237.97607421875	569.2527465820312	469.9097900390625	-1176.20458984375	692.9576416015625	101.1308746337891	-1154.303466796875	757.4395751953125	929.9830322265625	-1267.480712890625	700.6406860351562	496.3992309570312	
710	2.836	3538.87939453125	-665.2630615233459	-1547.538452148438	-1023.67919921875	665.2548217773438	1274.23388671875	-1175.591796875	511.6340942382812	612.2093505859375	-1044.759033203125	718.576171875	1073.49462890625	-1235.118408203125	803.293212890625	681.1818237304688	-1054.579711914062	507.5089721679688	405.8394470214844	-803.722412109375	599.1514892578125	337.3828735351562	-1306.097290039062	745.0233764648438	47.92086410522461	-1209.555297851562	769.840087890625	314.1717529296875	-1079.5986328125	691.1632690429688	53.98856353759766	-1322.6953125	663.8358764648438	51.81832504272461	-863.9659423828125	531.3637084960938	126.8876190185547	-1268.714233398438	518.5143432617188	727.923828125	-1184.530029296875	829.3917846679688	877.0526123046875	-886.0934448242188	624.9375	109.3167724609375	-1172.059448242188	589.1691284179688	399.9302062988281	-1289.952270507812	738.8802490234375	804.9108276367188	-993.2722778320312	602.1729736328125	316.2813720703125	-1134.399658203125	498.8383483886719	806.3602905273438	-1255.026245117188	669.9187622070312	407.1389465332031	-1210.36962890625	670.1095581054688	216.8556213378906	-1214.137329101562	665.361328125	1441.27392578125	-1212.5517578125	555.2804565429688	1009.634460449219	-1254.2236328125	659.9629516601562	1264.03955078125	-1227.2392578125	752.2156372070312	1029.900512695312	-1035.374267578125	608.749755859375	1065.050903320312	-1267.595458984375	752.8009033203125	495.9320373535156	-1269.735473632812	648.5972290039062	497.2313842773438	-1235.1396484375	520.1129150390625	469.6293029785156	-1265.212524414062	618.2462768554688	476.6287536621094	-1179.68212890625	648.5602416992188	106.2922821044922	-1172.682861328125	737.3211059570312	96.56214141845703	-910.650390625	621.9840698242188	255.5098571777344	-867.096435546875	542.1503295898438	282.5142211914062	-888.8734130859375	582.0671997070312	269.0120544433594	-1140.227905273438	570.7117919921875	915.4118041992188	-1250.176025390625	569.1795654296875	473.1290283203125	-1176.182495117188	692.940673828125	101.4272079467773	-1159.750244140625	757.2162475585938	931.263671875	-1268.66552734375	700.6990356445312	496.5816955566406	
